<svg width="228" height="96" viewBox="0 0 228 96" fill="none" xmlns="http://www.w3.org/2000/svg">
<g filter="url(#filter0_d_70_1772)">
<rect x="35.5" y="25.5" width="158" height="44" rx="22" stroke="#54B7E3" shape-rendering="crispEdges"/>
</g>
<path d="M61.79 53H59.675V41.687H53.654V53H51.539V40.04H61.79V53ZM68.026 43.676C68.704 43.676 69.316 43.787 69.862 44.009C70.414 44.231 70.882 44.546 71.266 44.954C71.656 45.362 71.956 45.857 72.166 46.439C72.376 47.021 72.481 47.675 72.481 48.401C72.481 49.127 72.376 49.781 72.166 50.363C71.956 50.945 71.656 51.443 71.266 51.857C70.882 52.265 70.414 52.58 69.862 52.802C69.316 53.024 68.704 53.135 68.026 53.135C67.342 53.135 66.724 53.024 66.172 52.802C65.626 52.58 65.158 52.265 64.768 51.857C64.378 51.443 64.078 50.945 63.868 50.363C63.658 49.781 63.553 49.127 63.553 48.401C63.553 47.675 63.658 47.021 63.868 46.439C64.078 45.857 64.378 45.362 64.768 44.954C65.158 44.546 65.626 44.231 66.172 44.009C66.724 43.787 67.342 43.676 68.026 43.676ZM68.026 51.623C68.854 51.623 69.469 51.347 69.871 50.795C70.279 50.237 70.483 49.442 70.483 48.41C70.483 47.378 70.279 46.583 69.871 46.025C69.469 45.461 68.854 45.179 68.026 45.179C67.186 45.179 66.562 45.461 66.154 46.025C65.746 46.583 65.542 47.378 65.542 48.41C65.542 49.442 65.746 50.237 66.154 50.795C66.562 51.347 67.186 51.623 68.026 51.623ZM80.0953 51.605V45.323H77.5213C77.4673 46.163 77.3893 46.916 77.2873 47.582C77.1913 48.248 77.0773 48.839 76.9453 49.355C76.8193 49.865 76.6783 50.306 76.5223 50.678C76.3663 51.044 76.2043 51.353 76.0363 51.605H80.0953ZM83.6503 51.542V55.529C83.6503 55.709 83.5963 55.85 83.4883 55.952C83.3863 56.06 83.2543 56.114 83.0923 56.114H81.8953V53H74.6323V55.565C74.6323 55.703 74.5873 55.829 74.4973 55.943C74.4133 56.057 74.2813 56.114 74.1013 56.114H72.8773V51.605H73.1563C73.3663 51.605 73.5733 51.575 73.7773 51.515C73.9813 51.449 74.1763 51.32 74.3623 51.128C74.5483 50.936 74.7253 50.666 74.8933 50.318C75.0613 49.964 75.2113 49.499 75.3433 48.923C75.4813 48.347 75.6013 47.642 75.7033 46.808C75.8053 45.974 75.8863 44.978 75.9463 43.82H81.9673V51.542H83.6503ZM92.8265 53H90.9005V45.278H86.9315V53H84.9965V43.82H92.8265V53ZM103.1 43.82V53H101.165V47.249C101.165 47.123 101.171 46.985 101.183 46.835C101.195 46.685 101.213 46.532 101.237 46.376C101.177 46.508 101.117 46.631 101.057 46.745C101.003 46.853 100.943 46.952 100.877 47.042L96.8898 52.523C96.8178 52.637 96.7218 52.748 96.6018 52.856C96.4818 52.958 96.3468 53.009 96.1968 53.009H95.0268V43.82H96.9618V49.571C96.9618 49.697 96.9528 49.838 96.9348 49.994C96.9228 50.15 96.9048 50.306 96.8808 50.462C97.0008 50.186 97.1238 49.958 97.2498 49.778L101.237 44.306C101.309 44.186 101.405 44.075 101.525 43.973C101.645 43.871 101.78 43.82 101.93 43.82H103.1ZM111.775 45.62C111.715 45.698 111.658 45.758 111.604 45.8C111.55 45.842 111.472 45.863 111.37 45.863C111.268 45.863 111.16 45.827 111.046 45.755C110.938 45.683 110.806 45.605 110.65 45.521C110.5 45.431 110.317 45.35 110.101 45.278C109.885 45.206 109.615 45.17 109.291 45.17C108.871 45.17 108.502 45.245 108.184 45.395C107.872 45.545 107.608 45.761 107.392 46.043C107.182 46.319 107.023 46.658 106.915 47.06C106.813 47.456 106.762 47.903 106.762 48.401C106.762 48.917 106.819 49.376 106.933 49.778C107.047 50.18 107.209 50.519 107.419 50.795C107.635 51.071 107.893 51.281 108.193 51.425C108.499 51.569 108.841 51.641 109.219 51.641C109.591 51.641 109.894 51.596 110.128 51.506C110.362 51.416 110.557 51.317 110.713 51.209C110.869 51.101 111.001 51.002 111.109 50.912C111.223 50.822 111.343 50.777 111.469 50.777C111.625 50.777 111.745 50.837 111.829 50.957L112.378 51.668C112.156 51.938 111.91 52.166 111.64 52.352C111.37 52.538 111.085 52.691 110.785 52.811C110.485 52.925 110.173 53.006 109.849 53.054C109.525 53.108 109.198 53.135 108.868 53.135C108.298 53.135 107.764 53.03 107.266 52.82C106.774 52.604 106.342 52.295 105.97 51.893C105.604 51.485 105.313 50.99 105.097 50.408C104.887 49.82 104.782 49.151 104.782 48.401C104.782 47.723 104.878 47.096 105.07 46.52C105.262 45.938 105.541 45.437 105.907 45.017C106.279 44.597 106.738 44.27 107.284 44.036C107.83 43.796 108.46 43.676 109.174 43.676C109.84 43.676 110.425 43.784 110.929 44C111.439 44.216 111.892 44.522 112.288 44.918L111.775 45.62ZM118.674 48.986C117.984 49.01 117.402 49.067 116.928 49.157C116.454 49.241 116.07 49.352 115.776 49.49C115.482 49.622 115.269 49.781 115.137 49.967C115.011 50.153 114.948 50.357 114.948 50.579C114.948 50.795 114.981 50.981 115.047 51.137C115.119 51.287 115.215 51.413 115.335 51.515C115.461 51.611 115.605 51.683 115.767 51.731C115.935 51.773 116.118 51.794 116.316 51.794C116.82 51.794 117.252 51.701 117.612 51.515C117.978 51.323 118.332 51.047 118.674 50.687V48.986ZM113.544 45.098C114.582 44.132 115.818 43.649 117.252 43.649C117.78 43.649 118.248 43.736 118.656 43.91C119.07 44.078 119.415 44.318 119.691 44.63C119.973 44.942 120.186 45.314 120.33 45.746C120.48 46.172 120.555 46.646 120.555 47.168V53H119.691C119.505 53 119.364 52.973 119.268 52.919C119.172 52.859 119.091 52.742 119.025 52.568L118.836 51.821C118.602 52.031 118.371 52.22 118.143 52.388C117.915 52.55 117.678 52.688 117.432 52.802C117.192 52.916 116.931 53 116.649 53.054C116.373 53.114 116.067 53.144 115.731 53.144C115.359 53.144 115.011 53.093 114.687 52.991C114.369 52.889 114.093 52.736 113.859 52.532C113.625 52.322 113.439 52.064 113.301 51.758C113.169 51.452 113.103 51.092 113.103 50.678C113.103 50.324 113.196 49.979 113.382 49.643C113.574 49.307 113.886 49.007 114.318 48.743C114.756 48.473 115.329 48.251 116.037 48.077C116.751 47.903 117.63 47.804 118.674 47.78V47.168C118.674 46.508 118.533 46.016 118.251 45.692C117.969 45.368 117.555 45.206 117.009 45.206C116.637 45.206 116.325 45.254 116.073 45.35C115.821 45.44 115.602 45.539 115.416 45.647C115.23 45.755 115.065 45.857 114.921 45.953C114.777 46.043 114.624 46.088 114.462 46.088C114.33 46.088 114.216 46.055 114.12 45.989C114.03 45.917 113.955 45.83 113.895 45.728L113.544 45.098ZM130.221 45.278H126.837V53H124.902V45.278H121.509V43.82H130.221V45.278ZM135.119 51.596C135.401 51.596 135.647 51.56 135.857 51.488C136.073 51.41 136.25 51.308 136.388 51.182C136.532 51.05 136.637 50.894 136.703 50.714C136.775 50.534 136.811 50.336 136.811 50.12C136.811 49.928 136.778 49.748 136.712 49.58C136.652 49.406 136.553 49.256 136.415 49.13C136.283 48.998 136.109 48.896 135.893 48.824C135.677 48.746 135.413 48.707 135.101 48.707H133.319V51.596H135.119ZM135.092 47.312C135.728 47.312 136.265 47.39 136.703 47.546C137.141 47.696 137.495 47.9 137.765 48.158C138.035 48.416 138.23 48.716 138.35 49.058C138.47 49.394 138.53 49.745 138.53 50.111C138.53 50.537 138.455 50.927 138.305 51.281C138.155 51.629 137.933 51.932 137.639 52.19C137.351 52.448 136.994 52.649 136.568 52.793C136.148 52.931 135.665 53 135.119 53H131.474V43.82H133.319V47.312H135.092ZM146.482 45.62C146.422 45.698 146.365 45.758 146.311 45.8C146.257 45.842 146.179 45.863 146.077 45.863C145.975 45.863 145.867 45.827 145.753 45.755C145.645 45.683 145.513 45.605 145.357 45.521C145.207 45.431 145.024 45.35 144.808 45.278C144.592 45.206 144.322 45.17 143.998 45.17C143.578 45.17 143.209 45.245 142.891 45.395C142.579 45.545 142.315 45.761 142.099 46.043C141.889 46.319 141.73 46.658 141.622 47.06C141.52 47.456 141.469 47.903 141.469 48.401C141.469 48.917 141.526 49.376 141.64 49.778C141.754 50.18 141.916 50.519 142.126 50.795C142.342 51.071 142.6 51.281 142.9 51.425C143.206 51.569 143.548 51.641 143.926 51.641C144.298 51.641 144.601 51.596 144.835 51.506C145.069 51.416 145.264 51.317 145.42 51.209C145.576 51.101 145.708 51.002 145.816 50.912C145.93 50.822 146.05 50.777 146.176 50.777C146.332 50.777 146.452 50.837 146.536 50.957L147.085 51.668C146.863 51.938 146.617 52.166 146.347 52.352C146.077 52.538 145.792 52.691 145.492 52.811C145.192 52.925 144.88 53.006 144.556 53.054C144.232 53.108 143.905 53.135 143.575 53.135C143.005 53.135 142.471 53.03 141.973 52.82C141.481 52.604 141.049 52.295 140.677 51.893C140.311 51.485 140.02 50.99 139.804 50.408C139.594 49.82 139.489 49.151 139.489 48.401C139.489 47.723 139.585 47.096 139.777 46.52C139.969 45.938 140.248 45.437 140.614 45.017C140.986 44.597 141.445 44.27 141.991 44.036C142.537 43.796 143.167 43.676 143.881 43.676C144.547 43.676 145.132 43.784 145.636 44C146.146 44.216 146.599 44.522 146.995 44.918L146.482 45.62ZM153.282 48.014V45.098H151.923C151.611 45.098 151.35 45.143 151.14 45.233C150.93 45.323 150.762 45.44 150.636 45.584C150.51 45.722 150.42 45.878 150.366 46.052C150.312 46.226 150.285 46.397 150.285 46.565C150.285 47.015 150.444 47.369 150.762 47.627C151.086 47.885 151.521 48.014 152.067 48.014H153.282ZM155.127 43.82V53H153.282V49.238H152.751C152.577 49.238 152.433 49.253 152.319 49.283C152.205 49.313 152.106 49.355 152.022 49.409C151.944 49.463 151.872 49.529 151.806 49.607C151.746 49.685 151.686 49.772 151.626 49.868L149.907 52.325C149.781 52.553 149.631 52.724 149.457 52.838C149.289 52.946 149.034 53 148.692 53H147.36L149.835 49.661C150.063 49.265 150.381 48.995 150.789 48.851C150.345 48.785 149.967 48.671 149.655 48.509C149.343 48.347 149.091 48.158 148.899 47.942C148.707 47.726 148.566 47.492 148.476 47.24C148.392 46.982 148.35 46.727 148.35 46.475C148.35 46.145 148.413 45.821 148.539 45.503C148.671 45.185 148.878 44.903 149.16 44.657C149.442 44.405 149.805 44.204 150.249 44.054C150.699 43.898 151.239 43.82 151.869 43.82H155.127Z" fill="#54B7E3"/>
<g clip-path="url(#clip0_70_1772)">
<path d="M172.5 40.5785V54.5071" stroke="#54B7E3" stroke-width="1.07143" stroke-linecap="round" stroke-linejoin="round"/>
<path d="M165.536 47.5H179.464" stroke="#54B7E3" stroke-width="1.07143" stroke-linecap="round" stroke-linejoin="round"/>
</g>
<defs>
<filter id="filter0_d_70_1772" x="33" y="23" width="167" height="53" filterUnits="userSpaceOnUse" color-interpolation-filters="sRGB">
<feFlood flood-opacity="0" result="BackgroundImageFix"/>
<feColorMatrix in="SourceAlpha" type="matrix" values="0 0 0 0 0 0 0 0 0 0 0 0 0 0 0 0 0 0 127 0" result="hardAlpha"/>
<feOffset dx="2" dy="2"/>
<feGaussianBlur stdDeviation="2"/>
<feComposite in2="hardAlpha" operator="out"/>
<feColorMatrix type="matrix" values="0 0 0 0 0 0 0 0 0 0 0 0 0 0 0 0 0 0 0.25 0"/>
<feBlend mode="normal" in2="BackgroundImageFix" result="effect1_dropShadow_70_1772"/>
<feBlend mode="normal" in="SourceGraphic" in2="effect1_dropShadow_70_1772" result="shape"/>
</filter>
<clipPath id="clip0_70_1772">
<rect width="15" height="15" fill="white" transform="translate(165 40)"/>
</clipPath>
</defs>
</svg>
