<svg width="228" height="96" viewBox="0 0 228 96" fill="none" xmlns="http://www.w3.org/2000/svg">
<g filter="url(#filter0_d_70_1772)">
<rect x="68" y="36" width="92" height="24" rx="12" fill="#54B7E3"/>
</g>
<path d="M89.66 53H88.1975V43.4H82.8275V53H81.3725V42.2525H89.66V53ZM94.8909 45.2825C95.4459 45.2825 95.9459 45.375 96.3909 45.56C96.8359 45.745 97.2159 46.0075 97.5309 46.3475C97.8459 46.6875 98.0859 47.1 98.2509 47.585C98.4209 48.065 98.5059 48.6025 98.5059 49.1975C98.5059 49.7975 98.4209 50.3375 98.2509 50.8175C98.0859 51.2975 97.8459 51.7075 97.5309 52.0475C97.2159 52.3875 96.8359 52.65 96.3909 52.835C95.9459 53.015 95.4459 53.105 94.8909 53.105C94.3309 53.105 93.8259 53.015 93.3759 52.835C92.9309 52.65 92.5509 52.3875 92.2359 52.0475C91.9209 51.7075 91.6784 51.2975 91.5084 50.8175C91.3434 50.3375 91.2609 49.7975 91.2609 49.1975C91.2609 48.6025 91.3434 48.065 91.5084 47.585C91.6784 47.1 91.9209 46.6875 92.2359 46.3475C92.5509 46.0075 92.9309 45.745 93.3759 45.56C93.8259 45.375 94.3309 45.2825 94.8909 45.2825ZM94.8909 52.0625C95.6409 52.0625 96.2009 51.8125 96.5709 51.3125C96.9409 50.8075 97.1259 50.105 97.1259 49.205C97.1259 48.3 96.9409 47.595 96.5709 47.09C96.2009 46.585 95.6409 46.3325 94.8909 46.3325C94.5109 46.3325 94.1784 46.3975 93.8934 46.5275C93.6134 46.6575 93.3784 46.845 93.1884 47.09C93.0034 47.335 92.8634 47.6375 92.7684 47.9975C92.6784 48.3525 92.6334 48.755 92.6334 49.205C92.6334 50.105 92.8184 50.8075 93.1884 51.3125C93.5634 51.8125 94.1309 52.0625 94.8909 52.0625ZM104.991 52.025V46.4525H102.583C102.533 47.2325 102.463 47.9225 102.373 48.5225C102.283 49.1225 102.178 49.65 102.058 50.105C101.943 50.555 101.813 50.9375 101.668 51.2525C101.528 51.5675 101.381 51.825 101.226 52.025H104.991ZM107.676 51.9875V55.205C107.676 55.335 107.638 55.435 107.563 55.505C107.493 55.58 107.401 55.6175 107.286 55.6175H106.468V53H100.078V55.235C100.078 55.33 100.048 55.4175 99.9883 55.4975C99.9333 55.5775 99.8408 55.6175 99.7108 55.6175H98.8708V52.025H99.1183C99.2933 52.025 99.4658 51.995 99.6358 51.935C99.8108 51.875 99.9783 51.7625 100.138 51.5975C100.298 51.4275 100.448 51.19 100.588 50.885C100.733 50.58 100.863 50.1825 100.978 49.6925C101.093 49.2025 101.193 48.6075 101.278 47.9075C101.363 47.2025 101.431 46.3675 101.481 45.4025H106.288V51.9875H107.676ZM115.193 53H113.851V46.4225H110.206V53H108.863V45.4025H115.193V53ZM123.668 45.4025V53H122.333V47.84C122.333 47.74 122.338 47.6325 122.348 47.5175C122.358 47.4025 122.37 47.2875 122.385 47.1725C122.34 47.2725 122.295 47.365 122.25 47.45C122.205 47.535 122.158 47.6125 122.108 47.6825L118.44 52.67C118.385 52.75 118.315 52.8275 118.23 52.9025C118.15 52.9725 118.06 53.0075 117.96 53.0075H117.15V45.41H118.493V50.57C118.493 50.665 118.488 50.77 118.478 50.885C118.468 50.995 118.455 51.1075 118.44 51.2225C118.485 51.1275 118.53 51.04 118.575 50.96C118.62 50.875 118.665 50.7975 118.71 50.7275L122.378 45.74C122.433 45.66 122.503 45.585 122.588 45.515C122.673 45.44 122.765 45.4025 122.865 45.4025H123.668ZM130.901 46.7525C130.861 46.8075 130.821 46.85 130.781 46.88C130.741 46.91 130.686 46.925 130.616 46.925C130.541 46.925 130.458 46.895 130.368 46.835C130.278 46.77 130.166 46.7 130.031 46.625C129.901 46.55 129.738 46.4825 129.543 46.4225C129.353 46.3575 129.118 46.325 128.838 46.325C128.463 46.325 128.133 46.3925 127.848 46.5275C127.563 46.6575 127.323 46.8475 127.128 47.0975C126.938 47.3475 126.793 47.65 126.693 48.005C126.598 48.36 126.551 48.7575 126.551 49.1975C126.551 49.6575 126.603 50.0675 126.708 50.4275C126.813 50.7825 126.961 51.0825 127.151 51.3275C127.346 51.5675 127.578 51.7525 127.848 51.8825C128.123 52.0075 128.431 52.07 128.771 52.07C129.096 52.07 129.363 52.0325 129.573 51.9575C129.783 51.8775 129.956 51.79 130.091 51.695C130.231 51.6 130.346 51.515 130.436 51.44C130.531 51.36 130.623 51.32 130.713 51.32C130.823 51.32 130.908 51.3625 130.968 51.4475L131.343 51.935C131.178 52.14 130.991 52.315 130.781 52.46C130.571 52.605 130.343 52.7275 130.098 52.8275C129.858 52.9225 129.606 52.9925 129.341 53.0375C129.076 53.0825 128.806 53.105 128.531 53.105C128.056 53.105 127.613 53.0175 127.203 52.8425C126.798 52.6675 126.446 52.415 126.146 52.085C125.846 51.75 125.611 51.34 125.441 50.855C125.271 50.37 125.186 49.8175 125.186 49.1975C125.186 48.6325 125.263 48.11 125.418 47.63C125.578 47.15 125.808 46.7375 126.108 46.3925C126.413 46.0425 126.786 45.77 127.226 45.575C127.671 45.38 128.181 45.2825 128.756 45.2825C129.291 45.2825 129.761 45.37 130.166 45.545C130.576 45.715 130.938 45.9575 131.253 46.2725L130.901 46.7525ZM137.224 45.7775C137.294 45.6675 137.386 45.5775 137.501 45.5075C137.616 45.4375 137.739 45.4025 137.869 45.4025H138.911L136.939 48.2975C136.819 48.4825 136.694 48.635 136.564 48.755C136.434 48.87 136.274 48.96 136.084 49.025C136.324 49.09 136.526 49.1925 136.691 49.3325C136.856 49.4675 137.004 49.6425 137.134 49.8575L139.129 53H138.199C137.959 53 137.774 52.96 137.644 52.88C137.514 52.8 137.401 52.685 137.306 52.535L135.829 50.1725C135.594 49.7825 135.241 49.5875 134.771 49.5875H133.954V53.0075H132.611V45.4025H133.954V48.6875H134.674C135.074 48.6875 135.386 48.5175 135.611 48.1775L137.224 45.7775ZM146.728 45.4025V53H145.393V47.84C145.393 47.74 145.398 47.6325 145.408 47.5175C145.418 47.4025 145.43 47.2875 145.445 47.1725C145.4 47.2725 145.355 47.365 145.31 47.45C145.265 47.535 145.218 47.6125 145.168 47.6825L141.5 52.67C141.445 52.75 141.375 52.8275 141.29 52.9025C141.21 52.9725 141.12 53.0075 141.02 53.0075H140.21V45.41H141.553V50.57C141.553 50.665 141.548 50.77 141.538 50.885C141.528 50.995 141.515 51.1075 141.5 51.2225C141.545 51.1275 141.59 51.04 141.635 50.96C141.68 50.875 141.725 50.7975 141.77 50.7275L145.438 45.74C145.493 45.66 145.563 45.585 145.648 45.515C145.733 45.44 145.825 45.4025 145.925 45.4025H146.728Z" fill="white"/>
<defs>
<filter id="filter0_d_70_1772" x="65" y="33" width="100" height="32" filterUnits="userSpaceOnUse" color-interpolation-filters="sRGB">
<feFlood flood-opacity="0" result="BackgroundImageFix"/>
<feColorMatrix in="SourceAlpha" type="matrix" values="0 0 0 0 0 0 0 0 0 0 0 0 0 0 0 0 0 0 127 0" result="hardAlpha"/>
<feOffset dx="1" dy="1"/>
<feGaussianBlur stdDeviation="2"/>
<feComposite in2="hardAlpha" operator="out"/>
<feColorMatrix type="matrix" values="0 0 0 0 0 0 0 0 0 0 0 0 0 0 0 0 0 0 0.3 0"/>
<feBlend mode="normal" in2="BackgroundImageFix" result="effect1_dropShadow_70_1772"/>
<feBlend mode="normal" in="SourceGraphic" in2="effect1_dropShadow_70_1772" result="shape"/>
</filter>
</defs>
</svg>
