<svg width="228" height="96" viewBox="0 0 228 96" fill="none" xmlns="http://www.w3.org/2000/svg">
<g filter="url(#filter0_d_70_1772)">
<rect x="35" y="25" width="159" height="45" rx="22.5" fill="#9ECDA3"/>
</g>
<path d="M60.255 52.335C60.729 52.335 61.128 52.281 61.452 52.173C61.782 52.059 62.049 51.906 62.253 51.714C62.463 51.522 62.613 51.297 62.703 51.039C62.799 50.775 62.847 50.493 62.847 50.193C62.847 49.581 62.637 49.101 62.217 48.753C61.803 48.399 61.146 48.222 60.246 48.222H57.645V52.335H60.255ZM57.645 42.687V46.737H59.751C60.651 46.737 61.323 46.563 61.767 46.215C62.211 45.867 62.433 45.366 62.433 44.712C62.433 43.998 62.223 43.482 61.803 43.164C61.389 42.846 60.738 42.687 59.85 42.687H57.645ZM59.85 41.04C60.678 41.04 61.386 41.121 61.974 41.283C62.562 41.439 63.045 41.664 63.423 41.958C63.801 42.252 64.077 42.612 64.251 43.038C64.431 43.458 64.521 43.932 64.521 44.46C64.521 44.766 64.473 45.063 64.377 45.351C64.287 45.633 64.143 45.9 63.945 46.152C63.753 46.398 63.51 46.62 63.216 46.818C62.922 47.016 62.574 47.181 62.172 47.313C64.008 47.703 64.926 48.678 64.926 50.238C64.926 50.79 64.821 51.297 64.611 51.759C64.407 52.215 64.107 52.611 63.711 52.947C63.321 53.277 62.838 53.535 62.262 53.721C61.686 53.907 61.029 54 60.291 54H55.539V41.04H59.85ZM70.243 52.596C70.525 52.596 70.771 52.56 70.981 52.488C71.197 52.41 71.374 52.308 71.512 52.182C71.656 52.05 71.761 51.894 71.827 51.714C71.899 51.534 71.935 51.336 71.935 51.12C71.935 50.928 71.902 50.748 71.836 50.58C71.776 50.406 71.677 50.256 71.539 50.13C71.407 49.998 71.233 49.896 71.017 49.824C70.801 49.746 70.537 49.707 70.225 49.707H68.434V52.596H70.243ZM70.216 48.312C70.852 48.312 71.389 48.39 71.827 48.546C72.265 48.696 72.619 48.9 72.889 49.158C73.159 49.416 73.354 49.716 73.474 50.058C73.594 50.394 73.654 50.745 73.654 51.111C73.654 51.537 73.579 51.927 73.429 52.281C73.279 52.629 73.057 52.932 72.763 53.19C72.475 53.448 72.118 53.649 71.692 53.793C71.272 53.931 70.789 54 70.243 54H66.598V44.82H68.434V48.312H70.216ZM77.416 44.82V54H75.481V44.82H77.416ZM91.764 54H89.838V46.278H85.869V54H83.934V44.82H91.764V54ZM97.9333 44.676C98.6113 44.676 99.2233 44.787 99.7693 45.009C100.321 45.231 100.789 45.546 101.173 45.954C101.563 46.362 101.863 46.857 102.073 47.439C102.283 48.021 102.388 48.675 102.388 49.401C102.388 50.127 102.283 50.781 102.073 51.363C101.863 51.945 101.563 52.443 101.173 52.857C100.789 53.265 100.321 53.58 99.7693 53.802C99.2233 54.024 98.6113 54.135 97.9333 54.135C97.2493 54.135 96.6313 54.024 96.0793 53.802C95.5333 53.58 95.0653 53.265 94.6753 52.857C94.2853 52.443 93.9853 51.945 93.7753 51.363C93.5653 50.781 93.4603 50.127 93.4603 49.401C93.4603 48.675 93.5653 48.021 93.7753 47.439C93.9853 46.857 94.2853 46.362 94.6753 45.954C95.0653 45.546 95.5333 45.231 96.0793 45.009C96.6313 44.787 97.2493 44.676 97.9333 44.676ZM97.9333 52.623C98.7613 52.623 99.3763 52.347 99.7783 51.795C100.186 51.237 100.39 50.442 100.39 49.41C100.39 48.378 100.186 47.583 99.7783 47.025C99.3763 46.461 98.7613 46.179 97.9333 46.179C97.0933 46.179 96.4693 46.461 96.0613 47.025C95.6533 47.583 95.4493 48.378 95.4493 49.41C95.4493 50.442 95.6533 51.237 96.0613 51.795C96.4693 52.347 97.0933 52.623 97.9333 52.623ZM110.003 52.605V46.323H107.429C107.375 47.163 107.297 47.916 107.195 48.582C107.099 49.248 106.985 49.839 106.853 50.355C106.727 50.865 106.586 51.306 106.43 51.678C106.274 52.044 106.112 52.353 105.944 52.605H110.003ZM113.558 52.542V56.529C113.558 56.709 113.504 56.85 113.396 56.952C113.294 57.06 113.162 57.114 113 57.114H111.803V54H104.54V56.565C104.54 56.703 104.495 56.829 104.405 56.943C104.321 57.057 104.189 57.114 104.009 57.114H102.785V52.605H103.064C103.274 52.605 103.481 52.575 103.685 52.515C103.889 52.449 104.084 52.32 104.27 52.128C104.456 51.936 104.633 51.666 104.801 51.318C104.969 50.964 105.119 50.499 105.251 49.923C105.389 49.347 105.509 48.642 105.611 47.808C105.713 46.974 105.794 45.978 105.854 44.82H111.875V52.542H113.558ZM122.734 54H120.808V46.278H116.839V54H114.904V44.82H122.734V54ZM133.007 44.82V54H131.072V48.249C131.072 48.123 131.078 47.985 131.09 47.835C131.102 47.685 131.12 47.532 131.144 47.376C131.084 47.508 131.024 47.631 130.964 47.745C130.91 47.853 130.85 47.952 130.784 48.042L126.797 53.523C126.725 53.637 126.629 53.748 126.509 53.856C126.389 53.958 126.254 54.009 126.104 54.009H124.934V44.82H126.869V50.571C126.869 50.697 126.86 50.838 126.842 50.994C126.83 51.15 126.812 51.306 126.788 51.462C126.908 51.186 127.031 50.958 127.157 50.778L131.144 45.306C131.216 45.186 131.312 45.075 131.432 44.973C131.552 44.871 131.687 44.82 131.837 44.82H133.007ZM141.682 46.62C141.622 46.698 141.565 46.758 141.511 46.8C141.457 46.842 141.379 46.863 141.277 46.863C141.175 46.863 141.067 46.827 140.953 46.755C140.845 46.683 140.713 46.605 140.557 46.521C140.407 46.431 140.224 46.35 140.008 46.278C139.792 46.206 139.522 46.17 139.198 46.17C138.778 46.17 138.409 46.245 138.091 46.395C137.779 46.545 137.515 46.761 137.299 47.043C137.089 47.319 136.93 47.658 136.822 48.06C136.72 48.456 136.669 48.903 136.669 49.401C136.669 49.917 136.726 50.376 136.84 50.778C136.954 51.18 137.116 51.519 137.326 51.795C137.542 52.071 137.8 52.281 138.1 52.425C138.406 52.569 138.748 52.641 139.126 52.641C139.498 52.641 139.801 52.596 140.035 52.506C140.269 52.416 140.464 52.317 140.62 52.209C140.776 52.101 140.908 52.002 141.016 51.912C141.13 51.822 141.25 51.777 141.376 51.777C141.532 51.777 141.652 51.837 141.736 51.957L142.285 52.668C142.063 52.938 141.817 53.166 141.547 53.352C141.277 53.538 140.992 53.691 140.692 53.811C140.392 53.925 140.08 54.006 139.756 54.054C139.432 54.108 139.105 54.135 138.775 54.135C138.205 54.135 137.671 54.03 137.173 53.82C136.681 53.604 136.249 53.295 135.877 52.893C135.511 52.485 135.22 51.99 135.004 51.408C134.794 50.82 134.689 50.151 134.689 49.401C134.689 48.723 134.785 48.096 134.977 47.52C135.169 46.938 135.448 46.437 135.814 46.017C136.186 45.597 136.645 45.27 137.191 45.036C137.737 44.796 138.367 44.676 139.081 44.676C139.747 44.676 140.332 44.784 140.836 45C141.346 45.216 141.799 45.522 142.195 45.918L141.682 46.62ZM148.581 49.986C147.891 50.01 147.309 50.067 146.835 50.157C146.361 50.241 145.977 50.352 145.683 50.49C145.389 50.622 145.176 50.781 145.044 50.967C144.918 51.153 144.855 51.357 144.855 51.579C144.855 51.795 144.888 51.981 144.954 52.137C145.026 52.287 145.122 52.413 145.242 52.515C145.368 52.611 145.512 52.683 145.674 52.731C145.842 52.773 146.025 52.794 146.223 52.794C146.727 52.794 147.159 52.701 147.519 52.515C147.885 52.323 148.239 52.047 148.581 51.687V49.986ZM143.451 46.098C144.489 45.132 145.725 44.649 147.159 44.649C147.687 44.649 148.155 44.736 148.563 44.91C148.977 45.078 149.322 45.318 149.598 45.63C149.88 45.942 150.093 46.314 150.237 46.746C150.387 47.172 150.462 47.646 150.462 48.168V54H149.598C149.412 54 149.271 53.973 149.175 53.919C149.079 53.859 148.998 53.742 148.932 53.568L148.743 52.821C148.509 53.031 148.278 53.22 148.05 53.388C147.822 53.55 147.585 53.688 147.339 53.802C147.099 53.916 146.838 54 146.556 54.054C146.28 54.114 145.974 54.144 145.638 54.144C145.266 54.144 144.918 54.093 144.594 53.991C144.276 53.889 144 53.736 143.766 53.532C143.532 53.322 143.346 53.064 143.208 52.758C143.076 52.452 143.01 52.092 143.01 51.678C143.01 51.324 143.103 50.979 143.289 50.643C143.481 50.307 143.793 50.007 144.225 49.743C144.663 49.473 145.236 49.251 145.944 49.077C146.658 48.903 147.537 48.804 148.581 48.78V48.168C148.581 47.508 148.44 47.016 148.158 46.692C147.876 46.368 147.462 46.206 146.916 46.206C146.544 46.206 146.232 46.254 145.98 46.35C145.728 46.44 145.509 46.539 145.323 46.647C145.137 46.755 144.972 46.857 144.828 46.953C144.684 47.043 144.531 47.088 144.369 47.088C144.237 47.088 144.123 47.055 144.027 46.989C143.937 46.917 143.862 46.83 143.802 46.728L143.451 46.098ZM160.394 44.82V54H158.468V49.833H154.499V54H152.564V44.82H154.499V48.375H158.468V44.82H160.394ZM166.239 52.596C166.521 52.596 166.767 52.56 166.977 52.488C167.193 52.41 167.37 52.308 167.508 52.182C167.652 52.05 167.757 51.894 167.823 51.714C167.895 51.534 167.931 51.336 167.931 51.12C167.931 50.928 167.898 50.748 167.832 50.58C167.772 50.406 167.673 50.256 167.535 50.13C167.403 49.998 167.229 49.896 167.013 49.824C166.797 49.746 166.533 49.707 166.221 49.707H164.43V52.596H166.239ZM166.212 48.312C166.848 48.312 167.385 48.39 167.823 48.546C168.261 48.696 168.615 48.9 168.885 49.158C169.155 49.416 169.35 49.716 169.47 50.058C169.59 50.394 169.65 50.745 169.65 51.111C169.65 51.537 169.575 51.927 169.425 52.281C169.275 52.629 169.053 52.932 168.759 53.19C168.471 53.448 168.114 53.649 167.688 53.793C167.268 53.931 166.785 54 166.239 54H162.594V44.82H164.43V48.312H166.212ZM173.412 44.82V54H171.477V44.82H173.412Z" fill="white"/>
<defs>
<filter id="filter0_d_70_1772" x="33" y="23" width="167" height="53" filterUnits="userSpaceOnUse" color-interpolation-filters="sRGB">
<feFlood flood-opacity="0" result="BackgroundImageFix"/>
<feColorMatrix in="SourceAlpha" type="matrix" values="0 0 0 0 0 0 0 0 0 0 0 0 0 0 0 0 0 0 127 0" result="hardAlpha"/>
<feOffset dx="2" dy="2"/>
<feGaussianBlur stdDeviation="2"/>
<feComposite in2="hardAlpha" operator="out"/>
<feColorMatrix type="matrix" values="0 0 0 0 0 0 0 0 0 0 0 0 0 0 0 0 0 0 0.25 0"/>
<feBlend mode="normal" in2="BackgroundImageFix" result="effect1_dropShadow_70_1772"/>
<feBlend mode="normal" in="SourceGraphic" in2="effect1_dropShadow_70_1772" result="shape"/>
</filter>
</defs>
</svg>
