<svg width="80" height="80" viewBox="0 0 80 80" fill="none" xmlns="http://www.w3.org/2000/svg">
<g filter="url(#filter0_d_70_1772)">
<rect x="20" y="20" width="40" height="40" rx="20" fill="#54B7E3"/>
</g>
<path d="M34.8615 41.5385C35.1866 42.6496 35.863 43.6253 36.7894 44.3196C37.7159 45.0138 38.8423 45.389 40 45.389C41.1577 45.389 42.2841 45.0138 43.2106 44.3196C44.137 43.6253 44.8134 42.6496 45.1385 41.5385M50 40C50 45.5228 45.5228 50 40 50C34.4772 50 30 45.5228 30 40C30 34.4772 34.4772 30 40 30C45.5228 30 50 34.4772 50 40ZM36.9231 37.3077C36.9231 37.5201 36.7509 37.6923 36.5385 37.6923C36.326 37.6923 36.1538 37.5201 36.1538 37.3077C36.1538 37.0953 36.326 36.9231 36.5385 36.9231C36.7509 36.9231 36.9231 37.0953 36.9231 37.3077ZM43.8462 37.3077C43.8462 37.5201 43.674 37.6923 43.4615 37.6923C43.2491 37.6923 43.0769 37.5201 43.0769 37.3077C43.0769 37.0953 43.2491 36.9231 43.4615 36.9231C43.674 36.9231 43.8462 37.0953 43.8462 37.3077Z" stroke="white" stroke-linecap="round" stroke-linejoin="round"/>
<defs>
<filter id="filter0_d_70_1772" x="18" y="18" width="48" height="48" filterUnits="userSpaceOnUse" color-interpolation-filters="sRGB">
<feFlood flood-opacity="0" result="BackgroundImageFix"/>
<feColorMatrix in="SourceAlpha" type="matrix" values="0 0 0 0 0 0 0 0 0 0 0 0 0 0 0 0 0 0 127 0" result="hardAlpha"/>
<feOffset dx="2" dy="2"/>
<feGaussianBlur stdDeviation="2"/>
<feComposite in2="hardAlpha" operator="out"/>
<feColorMatrix type="matrix" values="0 0 0 0 0 0 0 0 0 0 0 0 0 0 0 0 0 0 0.25 0"/>
<feBlend mode="normal" in2="BackgroundImageFix" result="effect1_dropShadow_70_1772"/>
<feBlend mode="normal" in="SourceGraphic" in2="effect1_dropShadow_70_1772" result="shape"/>
</filter>
</defs>
</svg>
