<svg width="228" height="96" viewBox="0 0 228 96" fill="none" xmlns="http://www.w3.org/2000/svg">
<g filter="url(#filter0_d_70_1772)">
<rect x="68.5" y="36.5" width="91" height="23" rx="11.5" stroke="#54B7E3" shape-rendering="crispEdges"/>
</g>
<path d="M100.66 53H99.1975V43.4H93.8275V53H92.3725V42.2525H100.66V53ZM105.891 45.2825C106.446 45.2825 106.946 45.375 107.391 45.56C107.836 45.745 108.216 46.0075 108.531 46.3475C108.846 46.6875 109.086 47.1 109.251 47.585C109.421 48.065 109.506 48.6025 109.506 49.1975C109.506 49.7975 109.421 50.3375 109.251 50.8175C109.086 51.2975 108.846 51.7075 108.531 52.0475C108.216 52.3875 107.836 52.65 107.391 52.835C106.946 53.015 106.446 53.105 105.891 53.105C105.331 53.105 104.826 53.015 104.376 52.835C103.931 52.65 103.551 52.3875 103.236 52.0475C102.921 51.7075 102.678 51.2975 102.508 50.8175C102.343 50.3375 102.261 49.7975 102.261 49.1975C102.261 48.6025 102.343 48.065 102.508 47.585C102.678 47.1 102.921 46.6875 103.236 46.3475C103.551 46.0075 103.931 45.745 104.376 45.56C104.826 45.375 105.331 45.2825 105.891 45.2825ZM105.891 52.0625C106.641 52.0625 107.201 51.8125 107.571 51.3125C107.941 50.8075 108.126 50.105 108.126 49.205C108.126 48.3 107.941 47.595 107.571 47.09C107.201 46.585 106.641 46.3325 105.891 46.3325C105.511 46.3325 105.178 46.3975 104.893 46.5275C104.613 46.6575 104.378 46.845 104.188 47.09C104.003 47.335 103.863 47.6375 103.768 47.9975C103.678 48.3525 103.633 48.755 103.633 49.205C103.633 50.105 103.818 50.8075 104.188 51.3125C104.563 51.8125 105.131 52.0625 105.891 52.0625ZM116.322 46.7525C116.282 46.8075 116.242 46.85 116.202 46.88C116.162 46.91 116.107 46.925 116.037 46.925C115.962 46.925 115.879 46.895 115.789 46.835C115.699 46.77 115.587 46.7 115.452 46.625C115.322 46.55 115.159 46.4825 114.964 46.4225C114.774 46.3575 114.539 46.325 114.259 46.325C113.884 46.325 113.554 46.3925 113.269 46.5275C112.984 46.6575 112.744 46.8475 112.549 47.0975C112.359 47.3475 112.214 47.65 112.114 48.005C112.019 48.36 111.972 48.7575 111.972 49.1975C111.972 49.6575 112.024 50.0675 112.129 50.4275C112.234 50.7825 112.382 51.0825 112.572 51.3275C112.767 51.5675 112.999 51.7525 113.269 51.8825C113.544 52.0075 113.852 52.07 114.192 52.07C114.517 52.07 114.784 52.0325 114.994 51.9575C115.204 51.8775 115.377 51.79 115.512 51.695C115.652 51.6 115.767 51.515 115.857 51.44C115.952 51.36 116.044 51.32 116.134 51.32C116.244 51.32 116.329 51.3625 116.389 51.4475L116.764 51.935C116.599 52.14 116.412 52.315 116.202 52.46C115.992 52.605 115.764 52.7275 115.519 52.8275C115.279 52.9225 115.027 52.9925 114.762 53.0375C114.497 53.0825 114.227 53.105 113.952 53.105C113.477 53.105 113.034 53.0175 112.624 52.8425C112.219 52.6675 111.867 52.415 111.567 52.085C111.267 51.75 111.032 51.34 110.862 50.855C110.692 50.37 110.607 49.8175 110.607 49.1975C110.607 48.6325 110.684 48.11 110.839 47.63C110.999 47.15 111.229 46.7375 111.529 46.3925C111.834 46.0425 112.207 45.77 112.647 45.575C113.092 45.38 113.602 45.2825 114.177 45.2825C114.712 45.2825 115.182 45.37 115.587 45.545C115.997 45.715 116.359 45.9575 116.674 46.2725L116.322 46.7525ZM124.347 46.4225H121.43V53H120.095V46.4225H117.177V45.4025H124.347V46.4225ZM128.373 52.025C128.643 52.025 128.875 51.9925 129.07 51.9275C129.27 51.8575 129.435 51.7625 129.565 51.6425C129.695 51.5175 129.793 51.3725 129.858 51.2075C129.923 51.0425 129.955 50.8625 129.955 50.6675C129.955 50.4875 129.928 50.32 129.873 50.165C129.818 50.005 129.725 49.865 129.595 49.745C129.47 49.625 129.305 49.53 129.1 49.46C128.895 49.39 128.645 49.355 128.35 49.355H126.73V52.025H128.373ZM128.35 48.38C128.875 48.38 129.315 48.4425 129.67 48.5675C130.03 48.6925 130.318 48.86 130.533 49.07C130.753 49.28 130.91 49.5225 131.005 49.7975C131.1 50.0725 131.148 50.3575 131.148 50.6525C131.148 50.9925 131.088 51.3075 130.968 51.5975C130.848 51.8825 130.67 52.13 130.435 52.34C130.2 52.545 129.91 52.7075 129.565 52.8275C129.22 52.9425 128.823 53 128.373 53H125.455V45.4025H126.73V48.38H128.35ZM134.155 45.4025V53H132.82V45.4025H134.155Z" fill="#54B7E3"/>
<defs>
<filter id="filter0_d_70_1772" x="65" y="33" width="100" height="32" filterUnits="userSpaceOnUse" color-interpolation-filters="sRGB">
<feFlood flood-opacity="0" result="BackgroundImageFix"/>
<feColorMatrix in="SourceAlpha" type="matrix" values="0 0 0 0 0 0 0 0 0 0 0 0 0 0 0 0 0 0 127 0" result="hardAlpha"/>
<feOffset dx="1" dy="1"/>
<feGaussianBlur stdDeviation="2"/>
<feComposite in2="hardAlpha" operator="out"/>
<feColorMatrix type="matrix" values="0 0 0 0 0 0 0 0 0 0 0 0 0 0 0 0 0 0 0.3 0"/>
<feBlend mode="normal" in2="BackgroundImageFix" result="effect1_dropShadow_70_1772"/>
<feBlend mode="normal" in="SourceGraphic" in2="effect1_dropShadow_70_1772" result="shape"/>
</filter>
</defs>
</svg>
