<svg width="228" height="96" viewBox="0 0 228 96" fill="none" xmlns="http://www.w3.org/2000/svg">
<g filter="url(#filter0_d_70_1772)">
<rect x="45" y="25" width="138" height="45" rx="22.5" fill="#54B7E3"/>
</g>
<path d="M67.571 47.646C68.039 47.646 68.45 47.586 68.804 47.466C69.164 47.346 69.461 47.178 69.695 46.962C69.935 46.74 70.115 46.473 70.235 46.161C70.355 45.849 70.415 45.501 70.415 45.117C70.415 44.739 70.355 44.4 70.235 44.1C70.121 43.8 69.947 43.545 69.713 43.335C69.479 43.125 69.182 42.966 68.822 42.858C68.468 42.744 68.051 42.687 67.571 42.687H65.645V47.646H67.571ZM67.571 41.04C68.417 41.04 69.149 41.139 69.767 41.337C70.391 41.535 70.904 41.814 71.306 42.174C71.714 42.528 72.017 42.957 72.215 43.461C72.413 43.959 72.512 44.511 72.512 45.117C72.512 45.735 72.407 46.302 72.197 46.818C71.987 47.328 71.675 47.769 71.261 48.141C70.847 48.507 70.331 48.795 69.713 49.005C69.101 49.209 68.387 49.311 67.571 49.311H65.645V54H63.539V41.04H67.571ZM79.5643 48.375C79.5643 48.051 79.5163 47.751 79.4203 47.475C79.3303 47.193 79.1953 46.95 79.0153 46.746C78.8353 46.536 78.6103 46.374 78.3403 46.26C78.0763 46.14 77.7703 46.08 77.4223 46.08C76.7203 46.08 76.1683 46.281 75.7663 46.683C75.3643 47.085 75.1093 47.649 75.0013 48.375H79.5643ZM74.9473 49.563C74.9713 50.085 75.0523 50.538 75.1903 50.922C75.3283 51.3 75.5113 51.615 75.7393 51.867C75.9733 52.119 76.2493 52.308 76.5673 52.434C76.8913 52.554 77.2513 52.614 77.6473 52.614C78.0253 52.614 78.3523 52.572 78.6283 52.488C78.9043 52.398 79.1443 52.302 79.3483 52.2C79.5523 52.092 79.7263 51.996 79.8703 51.912C80.0143 51.822 80.1463 51.777 80.2663 51.777C80.4223 51.777 80.5423 51.837 80.6263 51.957L81.1753 52.668C80.9473 52.938 80.6893 53.166 80.4013 53.352C80.1133 53.538 79.8073 53.691 79.4833 53.811C79.1593 53.925 78.8263 54.006 78.4843 54.054C78.1423 54.108 77.8093 54.135 77.4853 54.135C76.8493 54.135 76.2583 54.03 75.7123 53.82C75.1723 53.604 74.7013 53.289 74.2993 52.875C73.9033 52.461 73.5913 51.948 73.3633 51.336C73.1413 50.724 73.0303 50.019 73.0303 49.221C73.0303 48.585 73.1293 47.991 73.3273 47.439C73.5313 46.887 73.8193 46.407 74.1913 45.999C74.5693 45.591 75.0253 45.27 75.5593 45.036C76.0993 44.796 76.7083 44.676 77.3863 44.676C77.9503 44.676 78.4723 44.769 78.9523 44.955C79.4323 45.135 79.8463 45.402 80.1943 45.756C80.5423 46.11 80.8123 46.545 81.0043 47.061C81.2023 47.571 81.3013 48.153 81.3013 48.807C81.3013 49.107 81.2683 49.308 81.2023 49.41C81.1363 49.512 81.0163 49.563 80.8423 49.563H74.9473ZM91.0138 44.82V54H89.0788V48.249C89.0788 48.123 89.0848 47.985 89.0968 47.835C89.1088 47.685 89.1268 47.532 89.1508 47.376C89.0908 47.508 89.0308 47.631 88.9708 47.745C88.9168 47.853 88.8568 47.952 88.7908 48.042L84.8038 53.523C84.7318 53.637 84.6358 53.748 84.5158 53.856C84.3958 53.958 84.2608 54.009 84.1108 54.009H82.9408V44.82H84.8758V50.571C84.8758 50.697 84.8668 50.838 84.8488 50.994C84.8368 51.15 84.8188 51.306 84.7948 51.462C84.9148 51.186 85.0378 50.958 85.1638 50.778L89.1508 45.306C89.2228 45.186 89.3188 45.075 89.4388 44.973C89.5588 44.871 89.6938 44.82 89.8438 44.82H91.0138ZM87.0898 42.534C87.3238 42.534 87.5188 42.51 87.6748 42.462C87.8368 42.408 87.9658 42.324 88.0618 42.21C88.1578 42.09 88.2268 41.937 88.2688 41.751C88.3108 41.559 88.3318 41.322 88.3318 41.04H89.4658C89.6038 41.04 89.7058 41.1 89.7718 41.22C89.8378 41.334 89.8708 41.46 89.8708 41.598C89.8708 41.904 89.8048 42.18 89.6728 42.426C89.5468 42.666 89.3638 42.873 89.1238 43.047C88.8838 43.215 88.5898 43.347 88.2418 43.443C87.8998 43.533 87.5158 43.578 87.0898 43.578C86.6638 43.578 86.2768 43.533 85.9288 43.443C85.5868 43.347 85.2958 43.215 85.0558 43.047C84.8158 42.873 84.6298 42.666 84.4978 42.426C84.3718 42.18 84.3088 41.904 84.3088 41.598C84.3088 41.46 84.3418 41.334 84.4078 41.22C84.4738 41.1 84.5758 41.04 84.7138 41.04H85.8478C85.8478 41.322 85.8688 41.559 85.9108 41.751C85.9528 41.937 86.0218 42.09 86.1178 42.21C86.2138 42.324 86.3398 42.408 86.4958 42.462C86.6578 42.51 86.8558 42.534 87.0898 42.534ZM100.958 46.278H97.5736V54H95.6386V46.278H92.2456V44.82H100.958V46.278ZM110.283 44.82V54H108.348V48.249C108.348 48.123 108.354 47.985 108.366 47.835C108.378 47.685 108.396 47.532 108.42 47.376C108.36 47.508 108.3 47.631 108.24 47.745C108.186 47.853 108.126 47.952 108.06 48.042L104.073 53.523C104.001 53.637 103.905 53.748 103.785 53.856C103.665 53.958 103.53 54.009 103.38 54.009H102.21V44.82H104.145V50.571C104.145 50.697 104.136 50.838 104.118 50.994C104.106 51.15 104.088 51.306 104.064 51.462C104.184 51.186 104.307 50.958 104.433 50.778L108.42 45.306C108.492 45.186 108.588 45.075 108.708 44.973C108.828 44.871 108.963 44.82 109.113 44.82H110.283ZM120.299 44.82V54H118.373V49.833H114.404V54H112.469V44.82H114.404V48.375H118.373V44.82H120.299ZM128.593 46.278H124.435V54H122.5V44.82H128.593V46.278Z" fill="white"/>
<path d="M152.856 52.173C153.066 52.173 153.231 52.236 153.351 52.362C153.471 52.482 153.531 52.638 153.531 52.83V54H144.765V53.343C144.765 53.211 144.792 53.073 144.846 52.929C144.9 52.785 144.987 52.653 145.107 52.533L149.139 48.492C149.481 48.15 149.784 47.823 150.048 47.511C150.318 47.199 150.546 46.887 150.732 46.575C150.924 46.263 151.068 45.948 151.164 45.63C151.266 45.306 151.317 44.967 151.317 44.613C151.317 44.271 151.263 43.971 151.155 43.713C151.053 43.449 150.909 43.233 150.723 43.065C150.543 42.891 150.324 42.762 150.066 42.678C149.814 42.588 149.535 42.543 149.229 42.543C148.935 42.543 148.662 42.585 148.41 42.669C148.164 42.753 147.942 42.87 147.744 43.02C147.552 43.17 147.39 43.35 147.258 43.56C147.132 43.764 147.039 43.989 146.979 44.235C146.889 44.481 146.772 44.646 146.628 44.73C146.49 44.814 146.286 44.832 146.016 44.784L144.999 44.604C145.089 43.992 145.257 43.455 145.503 42.993C145.755 42.531 146.07 42.147 146.448 41.841C146.826 41.529 147.258 41.295 147.744 41.139C148.236 40.977 148.767 40.896 149.337 40.896C149.913 40.896 150.441 40.983 150.921 41.157C151.407 41.325 151.824 41.568 152.172 41.886C152.526 42.198 152.802 42.579 153 43.029C153.198 43.479 153.297 43.986 153.297 44.55C153.297 45.03 153.225 45.474 153.081 45.882C152.943 46.29 152.754 46.68 152.514 47.052C152.274 47.424 151.992 47.787 151.668 48.141C151.35 48.489 151.014 48.843 150.66 49.203L147.528 52.407C147.786 52.335 148.044 52.278 148.302 52.236C148.566 52.194 148.815 52.173 149.049 52.173H152.856ZM157.741 45.828C158.053 45.762 158.35 45.714 158.632 45.684C158.92 45.654 159.196 45.639 159.46 45.639C160.138 45.639 160.735 45.741 161.251 45.945C161.773 46.143 162.208 46.419 162.556 46.773C162.91 47.127 163.174 47.544 163.348 48.024C163.528 48.498 163.618 49.014 163.618 49.572C163.618 50.262 163.498 50.889 163.258 51.453C163.018 52.017 162.685 52.5 162.259 52.902C161.833 53.298 161.329 53.604 160.747 53.82C160.171 54.036 159.547 54.144 158.875 54.144C158.479 54.144 158.101 54.105 157.741 54.027C157.387 53.949 157.054 53.844 156.742 53.712C156.43 53.574 156.142 53.418 155.878 53.244C155.614 53.064 155.377 52.878 155.167 52.686L155.761 51.858C155.887 51.678 156.055 51.588 156.265 51.588C156.397 51.588 156.541 51.636 156.697 51.732C156.853 51.828 157.033 51.933 157.237 52.047C157.447 52.155 157.693 52.257 157.975 52.353C158.257 52.449 158.593 52.497 158.983 52.497C159.409 52.497 159.79 52.428 160.126 52.29C160.462 52.152 160.744 51.96 160.972 51.714C161.206 51.462 161.383 51.162 161.503 50.814C161.623 50.466 161.683 50.085 161.683 49.671C161.683 49.293 161.626 48.954 161.512 48.654C161.404 48.354 161.239 48.099 161.017 47.889C160.801 47.679 160.528 47.52 160.198 47.412C159.868 47.298 159.487 47.241 159.055 47.241C158.737 47.241 158.41 47.268 158.074 47.322C157.744 47.376 157.408 47.46 157.066 47.574L155.86 47.232L156.922 41.04H163.195V41.877C163.195 42.153 163.108 42.378 162.934 42.552C162.76 42.726 162.469 42.813 162.061 42.813H158.263L157.741 45.828Z" fill="white"/>
<defs>
<filter id="filter0_d_70_1772" x="43" y="23" width="146" height="53" filterUnits="userSpaceOnUse" color-interpolation-filters="sRGB">
<feFlood flood-opacity="0" result="BackgroundImageFix"/>
<feColorMatrix in="SourceAlpha" type="matrix" values="0 0 0 0 0 0 0 0 0 0 0 0 0 0 0 0 0 0 127 0" result="hardAlpha"/>
<feOffset dx="2" dy="2"/>
<feGaussianBlur stdDeviation="2"/>
<feComposite in2="hardAlpha" operator="out"/>
<feColorMatrix type="matrix" values="0 0 0 0 0 0 0 0 0 0 0 0 0 0 0 0 0 0 0.25 0"/>
<feBlend mode="normal" in2="BackgroundImageFix" result="effect1_dropShadow_70_1772"/>
<feBlend mode="normal" in="SourceGraphic" in2="effect1_dropShadow_70_1772" result="shape"/>
</filter>
</defs>
</svg>
