<svg width="80" height="80" viewBox="0 0 80 80" fill="none" xmlns="http://www.w3.org/2000/svg">
<g filter="url(#filter0_d_70_1772)">
<rect x="20" y="20" width="40" height="40" rx="20" fill="#54B7E3"/>
</g>
<path d="M40.3095 42.2198C41.7509 42.2198 42.9194 41.0513 42.9194 39.6099C42.9194 38.1685 41.7509 37 40.3095 37C38.8681 37 37.6996 38.1685 37.6996 39.6099C37.6996 41.0513 38.8681 42.2198 40.3095 42.2198Z" stroke="white" stroke-linecap="round" stroke-linejoin="round"/>
<path d="M49.4441 41.7849C50.6452 41.7849 51.619 40.8111 51.619 39.61C51.619 38.4088 50.6452 37.4351 49.4441 37.4351C48.2429 37.4351 47.2692 38.4088 47.2692 39.61C47.2692 40.8111 48.2429 41.7849 49.4441 41.7849Z" stroke="white" stroke-linecap="round" stroke-linejoin="round"/>
<path d="M31.1749 41.7849C32.3761 41.7849 33.3498 40.8111 33.3498 39.61C33.3498 38.4088 32.3761 37.4351 31.1749 37.4351C29.9737 37.4351 29 38.4088 29 39.61C29 40.8111 29.9737 41.7849 31.1749 41.7849Z" stroke="white" stroke-linecap="round" stroke-linejoin="round"/>
<defs>
<filter id="filter0_d_70_1772" x="18" y="18" width="48" height="48" filterUnits="userSpaceOnUse" color-interpolation-filters="sRGB">
<feFlood flood-opacity="0" result="BackgroundImageFix"/>
<feColorMatrix in="SourceAlpha" type="matrix" values="0 0 0 0 0 0 0 0 0 0 0 0 0 0 0 0 0 0 127 0" result="hardAlpha"/>
<feOffset dx="2" dy="2"/>
<feGaussianBlur stdDeviation="2"/>
<feComposite in2="hardAlpha" operator="out"/>
<feColorMatrix type="matrix" values="0 0 0 0 0 0 0 0 0 0 0 0 0 0 0 0 0 0 0.25 0"/>
<feBlend mode="normal" in2="BackgroundImageFix" result="effect1_dropShadow_70_1772"/>
<feBlend mode="normal" in="SourceGraphic" in2="effect1_dropShadow_70_1772" result="shape"/>
</filter>
</defs>
</svg>
