<svg width="80" height="80" viewBox="0 0 80 80" fill="none" xmlns="http://www.w3.org/2000/svg">
<g clip-path="url(#clip0_70_1772)">
<g filter="url(#filter0_d_70_1772)">
<rect x="5" y="5" width="70" height="70" rx="35" fill="white"/>
</g>
<path d="M40 39.8803C44.9375 39.8803 48.9401 35.8776 48.9401 30.9401C48.9401 26.0026 44.9375 22 40 22C35.0625 22 31.0599 26.0026 31.0599 30.9401C31.0599 35.8776 35.0625 39.8803 40 39.8803Z" stroke="#85CFF0" stroke-width="2.78352" stroke-linecap="round" stroke-linejoin="round"/>
<path d="M57 57.7605C55.8451 54.1593 53.5765 51.0179 50.5212 48.7892C47.466 46.5604 43.7818 45.3594 40 45.3594C36.2182 45.3594 32.534 46.5604 29.4787 48.7892C26.4235 51.0179 24.1549 54.1593 23 57.7605H57Z" stroke="#85CFF0" stroke-width="2.78352" stroke-linecap="round" stroke-linejoin="round"/>
</g>
<defs>
<filter id="filter0_d_70_1772" x="3" y="3" width="78" height="78" filterUnits="userSpaceOnUse" color-interpolation-filters="sRGB">
<feFlood flood-opacity="0" result="BackgroundImageFix"/>
<feColorMatrix in="SourceAlpha" type="matrix" values="0 0 0 0 0 0 0 0 0 0 0 0 0 0 0 0 0 0 127 0" result="hardAlpha"/>
<feOffset dx="2" dy="2"/>
<feGaussianBlur stdDeviation="2"/>
<feComposite in2="hardAlpha" operator="out"/>
<feColorMatrix type="matrix" values="0 0 0 0 0 0 0 0 0 0 0 0 0 0 0 0 0 0 0.25 0"/>
<feBlend mode="normal" in2="BackgroundImageFix" result="effect1_dropShadow_70_1772"/>
<feBlend mode="normal" in="SourceGraphic" in2="effect1_dropShadow_70_1772" result="shape"/>
</filter>
<clipPath id="clip0_70_1772">
<rect width="80" height="80" fill="white"/>
</clipPath>
</defs>
</svg>
